<svg width="25" height="24" viewBox="0 0 25 24" fill="none" xmlns="http://www.w3.org/2000/svg">
<g id="fi_5115194">
<g id="Group">
<path id="Vector" d="M22.0538 5.87097H21.086V4.90323C21.086 4.36959 20.6519 3.93548 20.1183 3.93548H19.1505V2.96774C19.1505 2.43415 18.7164 2 18.1828 2H5.83867C5.30503 2 4.87092 2.43411 4.87092 2.96774V3.93548H3.90323C3.36959 3.93548 2.93548 4.36959 2.93548 4.90323V5.87097H1.96774C1.43411 5.87097 1 6.30508 1 6.83871V21.0323C1 21.5658 1.43411 22 1.96774 22H19.1505V21.3548H1.96774C1.78989 21.3548 1.64516 21.2101 1.64516 21.0323V6.83871C1.64516 6.66086 1.78989 6.51613 1.96774 6.51613H22.0538C22.2316 6.51613 22.3763 6.66086 22.3763 6.83871V21.0323C22.3763 21.2101 22.2316 21.3548 22.0538 21.3548H21.086V22H22.0538C22.5874 22 23.0215 21.5659 23.0215 21.0323V6.83871C23.0215 6.30508 22.5874 5.87097 22.0538 5.87097ZM3.58065 4.90323C3.58065 4.72538 3.72533 4.58065 3.90323 4.58065H6.48383V3.93548H5.51609V2.96774C5.51609 2.78989 5.66077 2.64516 5.83867 2.64516H18.1828C18.3607 2.64516 18.5054 2.78985 18.5054 2.96774V3.93548H7.12899V4.58065H20.1183C20.2962 4.58065 20.4409 4.72538 20.4409 4.90323V5.87097H3.58065V4.90323Z" fill="white"/>
<path id="Vector_2" d="M19.7957 21.3547H20.4408V21.9999H19.7957V21.3547Z" fill="white"/>
<path id="Vector_3" d="M10.418 16.4017L14.6837 13.9641L10.418 11.5265V16.4017ZM11.0631 12.6382L13.3834 13.9641L11.0631 15.2899V12.6382Z" fill="white"/>
<path id="Vector_4" d="M7.172 13.9354C7.172 16.6035 9.34262 18.7741 12.0107 18.7741C14.6788 18.7741 16.8494 16.6035 16.8494 13.9354C16.8494 11.2673 14.6788 9.09668 12.0107 9.09668C9.34262 9.09668 7.172 11.2673 7.172 13.9354ZM16.2043 13.9354C16.2043 16.2477 14.3231 18.1289 12.0107 18.1289C9.69836 18.1289 7.81716 16.2477 7.81716 13.9354C7.81716 11.6231 9.69836 9.74184 12.0107 9.74184C14.3231 9.74184 16.2043 11.623 16.2043 13.9354Z" fill="white"/>
<path id="Vector_5" d="M21.0861 7.16125H21.7312V7.80642H21.0861V7.16125Z" fill="white"/>
<path id="Vector_6" d="M21.0861 8.45166H21.7312V9.09682H21.0861V8.45166Z" fill="white"/>
</g>
</g>
</svg>
