<svg width="24" height="24" viewBox="0 0 24 24" fill="none" xmlns="http://www.w3.org/2000/svg">
<rect width="24" height="24" rx="2" fill="black" fill-opacity="0.1"/>
<path d="M7.02878 21C6.83157 21 6.63573 20.9358 6.4686 20.8097C6.15727 20.5742 6.01183 20.1695 6.09657 19.779L7.25455 14.4563L3.32739 10.8624C3.03872 10.5995 2.92844 10.183 3.04696 9.80198C3.16548 9.42165 3.48793 9.15238 3.86972 9.11555L9.06583 8.6233L11.1202 3.60661C11.2717 3.23803 11.6166 3 11.9999 3C12.3832 3 12.7282 3.23803 12.8797 3.60575L14.934 8.6233L20.1293 9.11555C20.5119 9.15152 20.8344 9.42165 20.9529 9.80198C21.0714 10.1823 20.9618 10.5995 20.6732 10.8624L16.746 14.4555L17.904 19.7782C17.9889 20.1695 17.8433 20.5742 17.5321 20.809C17.2216 21.0437 16.8075 21.0618 16.4805 20.8567L11.9999 18.0627L7.51933 20.8583C7.36785 20.9521 7.19907 21 7.02878 21ZM11.9999 16.8591C12.1702 16.8591 12.3389 16.9068 12.4905 17.0006L16.7191 19.6397L15.6262 14.6159C15.5482 14.2583 15.6645 13.885 15.9293 13.6431L19.6374 10.2497L14.7315 9.78479C14.3783 9.75111 14.0745 9.51939 13.9365 9.17975L11.9999 4.44552L10.0611 9.18047C9.92457 9.51781 9.62079 9.74953 9.2684 9.78321L4.36178 10.2481L8.06976 13.6416C8.33536 13.8842 8.45154 14.2568 8.37285 14.6152L7.28078 19.6389L11.5094 17.0006C11.6609 16.9068 11.8296 16.8591 11.9999 16.8591ZM9.02614 8.72032C9.02614 8.72032 9.02614 8.72118 9.02532 8.72189L9.02614 8.72032ZM14.9722 8.71802L14.973 8.7196C14.973 8.71874 14.973 8.71874 14.9722 8.71802Z" fill="white"/>
</svg>
