<svg width="24" height="24" viewBox="0 0 24 24" fill="none" xmlns="http://www.w3.org/2000/svg">
<rect width="24" height="24" rx="2" fill="black" fill-opacity="0.4"/>
<path d="M20.953 9.80198C20.8352 9.42165 20.5119 9.15152 20.1295 9.11555L14.9342 8.6233L12.8798 3.60575C12.7283 3.23803 12.3834 3 12.0001 3C11.6168 3 11.2718 3.23803 11.1203 3.60661L9.06597 8.6233L3.86986 9.11555C3.48808 9.15238 3.16562 9.42165 3.0471 9.80198C2.92858 10.1823 3.03804 10.5995 3.32685 10.8624L7.25387 14.4563L6.09588 19.779C6.01115 20.1704 6.15672 20.575 6.46791 20.8097C6.63518 20.9358 6.83088 21 7.02823 21C7.19838 21 7.36717 20.9521 7.51864 20.8576L12.0001 18.0627L16.4799 20.8576C16.8077 21.0633 17.2209 21.0446 17.5314 20.8097C17.8427 20.5742 17.9882 20.1695 17.9034 19.779L16.7455 14.4563L20.6725 10.8632C20.9613 10.5995 21.0716 10.183 20.953 9.80198Z" fill="#84F729"/>
</svg>
