<svg width="25" height="24" viewBox="0 0 25 24" fill="none" xmlns="http://www.w3.org/2000/svg">
<path d="M22.4193 10.699C22.4187 10.6986 22.4182 10.698 22.4178 10.6975L14.2594 2.5394C13.9116 2.1915 13.4493 2 12.9575 2C12.4657 2 12.0033 2.1915 11.6554 2.5394L3.5013 10.6934C3.49856 10.6961 3.49566 10.699 3.49306 10.7018C2.77895 11.42 2.78017 12.5853 3.49657 13.3017C3.82387 13.6292 4.256 13.8187 4.71819 13.8387C4.73711 13.8405 4.75603 13.8414 4.77511 13.8414H5.10012V19.8452C5.10012 21.0334 6.06691 22 7.25512 22H10.4469C10.7706 22 11.0329 21.7375 11.0329 21.4141V16.707C11.0329 16.1649 11.474 15.7239 12.0162 15.7239H13.8988C14.4409 15.7239 14.8819 16.1649 14.8819 16.707V21.4141C14.8819 21.7375 15.1442 22 15.4679 22H18.6597C19.848 22 20.8147 21.0334 20.8147 19.8452V13.8414H21.1162C21.6078 13.8414 22.0702 13.6499 22.4182 13.3019C23.1354 12.5844 23.1357 11.417 22.4193 10.699ZM21.5895 12.4733C21.463 12.5998 21.2949 12.6696 21.1162 12.6696H20.2287C19.9051 12.6696 19.6428 12.9319 19.6428 13.2555V19.8452C19.6428 20.3871 19.2018 20.8281 18.6597 20.8281H16.0538V16.707C16.0538 15.5188 15.0871 14.552 13.8988 14.552H12.0162C10.8278 14.552 9.86101 15.5188 9.86101 16.707V20.8281H7.25512C6.71312 20.8281 6.27199 20.3871 6.27199 19.8452V13.2555C6.27199 12.9319 6.00969 12.6696 5.68606 12.6696H4.81386C4.80471 12.6689 4.79571 12.6685 4.7864 12.6683C4.61184 12.6653 4.44811 12.596 4.32543 12.4732C4.0645 12.2122 4.0645 11.7876 4.32543 11.5265C4.32558 11.5265 4.32558 11.5264 4.32573 11.5262L4.32619 11.5258L12.4843 3.36795C12.6106 3.24146 12.7786 3.17188 12.9575 3.17188C13.1362 3.17188 13.3042 3.24146 13.4307 3.36795L21.5869 11.5241C21.5882 11.5253 21.5895 11.5265 21.5907 11.5277C21.8503 11.7891 21.8498 12.2129 21.5895 12.4733Z" fill="white"/>
</svg>
