<svg width="25" height="24" viewBox="0 0 25 24" fill="none" xmlns="http://www.w3.org/2000/svg">
<g id="fi_2486474">
<path id="Vector" d="M20.8043 7.37248L20.7968 7.36048C22.1933 5.05048 22.4888 3.51748 21.675 2.69998C20.8613 1.88248 19.3193 2.18173 17.0018 3.58423C15.1796 2.58053 13.0808 2.19588 11.0211 2.48817C8.96146 2.78046 7.05248 3.73388 5.58154 5.20491C4.1106 6.67594 3.15729 8.58497 2.86511 10.6446C2.57294 12.7043 2.95772 14.8032 3.96152 16.6252C2.55827 18.9435 2.25977 20.481 3.07502 21.3C3.23373 21.4532 3.42199 21.5724 3.62831 21.6504C3.83462 21.7284 4.05467 21.7636 4.27502 21.7537C5.52395 21.6114 6.71624 21.1541 7.74002 20.4247L7.74827 20.43L7.76327 20.4202C9.58453 21.4184 11.6804 21.7991 13.7364 21.5051C15.7923 21.2111 17.6975 20.2583 19.166 18.7896C20.6345 17.321 21.5871 15.4157 21.8808 13.3597C22.1746 11.3037 21.7937 9.20787 20.7953 7.38673L20.8043 7.37248ZM20.6025 3.74998C20.6775 3.88348 20.6355 4.56073 19.8593 5.98798C19.4226 5.44553 18.9287 4.95168 18.3863 4.51498C19.8135 3.73873 20.487 3.69598 20.6025 3.74998ZM12.375 3.89248C13.6809 3.89369 14.9671 4.20999 16.1246 4.81452C17.2821 5.41905 18.2767 6.29397 19.0238 7.36498C17.5036 9.56672 15.7779 11.6192 13.8698 13.4947C11.9943 15.4026 9.94211 17.1283 7.74077 18.6487C6.32475 17.6625 5.26046 16.25 4.70282 14.617C4.14517 12.9839 4.12327 11.2155 4.64031 9.5692C5.15736 7.92285 6.18635 6.48448 7.57751 5.46347C8.96867 4.44246 10.6494 3.89209 12.375 3.89248ZM4.14752 20.25C4.07252 20.1165 4.11452 19.4392 4.89077 18.012C5.32727 18.5546 5.82114 19.0485 6.36377 19.485C4.93652 20.2612 4.26227 20.3032 4.14752 20.25ZM12.375 20.1075C11.2859 20.1061 10.2083 19.8844 9.20702 19.4557C11.2467 17.9829 13.161 16.3438 14.9303 14.5552C16.719 12.7861 18.3581 10.8718 19.8308 8.83198C20.3576 10.064 20.5704 11.4076 20.4499 12.7422C20.3293 14.0767 19.8793 15.3604 19.1403 16.4782C18.4012 17.5959 17.3962 18.5126 16.2154 19.146C15.0346 19.7795 13.715 20.1099 12.375 20.1075Z" fill="#9DFE00"/>
</g>
</svg>
