<svg width="23" height="24" viewBox="0 0 23 24" fill="none" xmlns="http://www.w3.org/2000/svg">
<g id="icon" clip-path="url(#clip0_3205_4605)">
<path id="Vector" d="M10.3428 17.4714C8.49752 17.2227 6.81085 16.2392 5.62563 14.7206C4.44042 13.2021 3.84561 11.2625 3.9621 9.29612C4.07858 7.32975 4.89762 5.48414 6.25275 4.13441C7.60787 2.78467 9.39739 2.03211 11.2576 2.02967C13.1201 2.0282 14.913 2.77892 16.271 4.12888C17.6291 5.47884 18.4501 7.32644 18.5667 9.29522C18.6833 11.264 18.0868 13.2058 16.8987 14.7249C15.7106 16.2441 14.0204 17.2263 12.1723 17.4714V19.4808C15.7819 19.57 18.5756 20.1813 18.5756 20.9225C18.5756 21.7247 15.299 22.3758 11.2576 22.3758C7.21621 22.3758 3.93958 21.7247 3.93958 20.9225C3.93958 20.1813 6.73323 19.57 10.3428 19.4808V17.4714ZM11.2576 11.7183C11.7428 11.7183 12.2081 11.5142 12.5512 11.1508C12.8943 10.7874 13.0871 10.2945 13.0871 9.78058C13.0871 9.26666 12.8943 8.77379 12.5512 8.4104C12.2081 8.047 11.7428 7.84285 11.2576 7.84285C10.7724 7.84285 10.307 8.047 9.96393 8.4104C9.62083 8.77379 9.42808 9.26666 9.42808 9.78058C9.42808 10.2945 9.62083 10.7874 9.96393 11.1508C10.307 11.5142 10.7724 11.7183 11.2576 11.7183Z" fill="url(#paint0_linear_3205_4605)"/>
</g>
<defs>
<linearGradient id="paint0_linear_3205_4605" x1="2.56155" y1="-2.00449" x2="20.7545" y2="0.177208" gradientUnits="userSpaceOnUse">
<stop stop-color="#9DFE00"/>
<stop offset="1" stop-color="#14D9E6"/>
</linearGradient>
<clipPath id="clip0_3205_4605">
<rect width="21.954" height="23.2527" fill="white" transform="translate(0.280396 0.092041)"/>
</clipPath>
</defs>
</svg>
