<svg width="22" height="20" viewBox="0 0 22 20" fill="none" xmlns="http://www.w3.org/2000/svg">
<g id="icon" clip-path="url(#clip0_3205_4596)">
<path id="Vector" d="M10.9764 18.3333C5.9242 18.3333 1.82886 14.6025 1.82886 9.99996C1.82886 5.39746 5.9242 1.66663 10.9764 1.66663C16.0285 1.66663 20.1239 5.39746 20.1239 9.99996C20.1239 14.6025 16.0285 18.3333 10.9764 18.3333ZM16.7896 13.2933V13.2058C16.7896 12.4375 16.7896 12.0866 16.1932 11.7758C16.0015 11.6768 15.8046 11.5864 15.6032 11.505C15.2675 11.3658 15.0452 11.275 14.7451 10.875C14.7093 10.8275 14.6739 10.7797 14.639 10.7316C14.3234 10.2941 14.0957 9.97913 13.2285 10.1041C11.5225 10.3508 11.3962 10.6241 11.3212 11.0858L11.3093 11.1616C11.1987 11.8366 11.1785 12.0633 11.4877 12.3591C12.6449 13.465 13.3383 14.2625 13.5486 14.7291C13.6511 14.9566 13.9145 15.6458 13.7334 16.3275C14.8438 15.9246 15.8321 15.2854 16.6158 14.4633C16.7164 14.1516 16.7896 13.7633 16.7896 13.2933ZM10.9764 3.19413C8.85689 3.19413 6.94232 3.99913 5.583 5.29079C5.74491 5.39329 5.88578 5.53746 5.98274 5.73579C6.16935 6.11663 6.16935 6.50912 6.16935 6.85663C6.16935 7.12996 6.16935 7.38996 6.2654 7.57746C6.39712 7.83413 6.9661 7.94413 7.4683 8.03912C7.6485 8.07413 7.83328 8.10912 8.0016 8.15162C8.46446 8.26829 8.82304 8.64746 9.10936 8.95162C9.22828 9.07746 9.40482 9.26329 9.49356 9.30996C9.53929 9.27996 9.68657 9.13412 9.75883 8.89496C9.81555 8.71162 9.79908 8.54996 9.71767 8.46163C9.20541 7.91163 9.23377 6.85329 9.39202 6.46246C9.64083 5.84663 10.4184 5.89246 10.9873 5.92579C11.1996 5.93829 11.399 5.95079 11.549 5.93329C12.118 5.86829 12.2936 5.07913 12.4171 4.92496C12.6842 4.59163 13.502 4.08913 14.0088 3.77913C13.0542 3.39245 12.021 3.19313 10.9764 3.19413Z" fill="url(#paint0_linear_3205_4596)"/>
</g>
<defs>
<linearGradient id="paint0_linear_3205_4596" x1="0.106974" y1="-1.63797" x2="22.4199" y2="2.44363" gradientUnits="userSpaceOnUse">
<stop stop-color="#9DFE00"/>
<stop offset="1" stop-color="#14D9E6"/>
</linearGradient>
<clipPath id="clip0_3205_4596">
<rect width="21.954" height="20" fill="white"/>
</clipPath>
</defs>
</svg>
