<svg width="16" height="17" viewBox="0 0 16 17" fill="none" xmlns="http://www.w3.org/2000/svg">
<g id="Frame" clip-path="url(#clip0_3205_4608)">
<path id="Vector" d="M6.64472 4.70121V6.04987H3.46138V13.4675H10.4647V10.0958H11.7381V14.1418C11.7381 14.3207 11.671 14.4922 11.5516 14.6186C11.4322 14.7451 11.2702 14.8162 11.1014 14.8162H2.82472C2.65586 14.8162 2.49392 14.7451 2.37452 14.6186C2.25513 14.4922 2.18805 14.3207 2.18805 14.1418V5.37554C2.18805 5.1967 2.25513 5.02518 2.37452 4.89872C2.49392 4.77226 2.65586 4.70121 2.82472 4.70121H6.64472ZM13.6481 2.67822V8.74719L11.2325 6.18946L7.41317 10.2354L6.51293 9.28193L10.3323 5.23595L7.91805 2.67822H13.6481Z" fill="white"/>
</g>
<defs>
<clipPath id="clip0_3205_4608">
<rect width="15.28" height="16.1839" fill="white" transform="translate(0.277283 0.655151)"/>
</clipPath>
</defs>
</svg>
