<svg width="23" height="24" viewBox="0 0 23 24" fill="none" xmlns="http://www.w3.org/2000/svg">
<g id="icon" clip-path="url(#clip0_3205_4584)">
<path id="Vector" d="M6.49985 3.9364C7.98406 2.69922 9.8299 2.02652 11.7317 2.02967C13.7107 2.02967 15.5295 2.74276 16.9636 3.9364L18.3168 2.52864L19.6336 3.89861L18.2805 5.30637C19.4696 6.85049 20.1162 8.77084 20.1132 10.7495V11.7183H3.35028V10.7495C3.35028 8.69062 4.0357 6.79842 5.18303 5.30637L3.82989 3.89958L5.14671 2.52961L6.49985 3.93737V3.9364ZM3.35028 13.656H20.1132V20.4381C20.1132 20.6951 20.0151 20.9415 19.8405 21.1232C19.6658 21.3049 19.4289 21.407 19.1819 21.407H4.28155C4.03457 21.407 3.79769 21.3049 3.62304 21.1232C3.4484 20.9415 3.35028 20.6951 3.35028 20.4381V13.656ZM8.93793 8.81172C9.18491 8.81172 9.42179 8.70965 9.59644 8.52795C9.77108 8.34625 9.8692 8.09982 9.8692 7.84286C9.8692 7.5859 9.77108 7.33947 9.59644 7.15777C9.42179 6.97607 9.18491 6.87399 8.93793 6.87399C8.69094 6.87399 8.45406 6.97607 8.27942 7.15777C8.10477 7.33947 8.00665 7.5859 8.00665 7.84286C8.00665 8.09982 8.10477 8.34625 8.27942 8.52795C8.45406 8.70965 8.69094 8.81172 8.93793 8.81172ZM14.5256 8.81172C14.7726 8.81172 15.0094 8.70965 15.1841 8.52795C15.3587 8.34625 15.4568 8.09982 15.4568 7.84286C15.4568 7.5859 15.3587 7.33947 15.1841 7.15777C15.0094 6.97607 14.7726 6.87399 14.5256 6.87399C14.2786 6.87399 14.0417 6.97607 13.8671 7.15777C13.6924 7.33947 13.5943 7.5859 13.5943 7.84286C13.5943 8.09982 13.6924 8.34625 13.8671 8.52795C14.0417 8.70965 14.2786 8.81172 14.5256 8.81172Z" fill="url(#paint0_linear_3205_4584)"/>
</g>
<defs>
<linearGradient id="paint0_linear_3205_4584" x1="1.77259" y1="-1.81239" x2="22.471" y2="1.1715" gradientUnits="userSpaceOnUse">
<stop stop-color="#9DFE00"/>
<stop offset="1" stop-color="#14D9E6"/>
</linearGradient>
<clipPath id="clip0_3205_4584">
<rect width="22.3506" height="23.2527" fill="white" transform="translate(0.556458 0.0919189)"/>
</clipPath>
</defs>
</svg>
